<?xml version="1.0" encoding="UTF-8"?><svg id="Layer_2" xmlns="http://www.w3.org/2000/svg" viewBox="0 0 537.1 334.21"><defs><style>.cls-1{fill:#001e1d;}</style></defs><g id="Landing_Page"><g><path class="cls-1" d="M499.38,333.94c-28.49,0-56.98,.14-85.46-.08-13.71-.11-25.85-4.93-35.61-14.67-3.07-3.06-6.15-3.94-10.24-3.91-19.57,.15-39.16,.5-58.72-.08-13.31-.39-26.72-1.38-39.84-3.59-12.29-2.07-24.25-6.1-36.41-9.28-11.37,20.8-27.9,32.68-53.14,31.83-26.71-.9-53.48-.2-80.22-.2h-6.78c0-5.74,.09-10.93-.02-16.11-.39-18.69,6.45-34.43,19.59-47.46,4.39-4.35,9.5-7.97,13.98-12.24,1.66-1.58,3.44-4.04,3.5-6.14,.71-27.3-8.18-49.4-34.32-61.93-12.21-5.86-24.4-11.78-36.46-17.94-24-12.25-43.82-29.09-57.02-52.98-1-1.81-2.14-3.87-2.18-5.83C-1.41,45.99,45.89,13.28,103.28,18.33c25.19,2.22,42.71,17.7,56.7,37.64,2.97,4.23,5.69,8.64,7.88,12,9.47-3.65,18.28-6.94,26.99-10.49,1.62-.66,3.18-2.08,4.17-3.55,16.4-24.39,39.23-39.86,67.17-47.85,35.02-10.02,69.81-6.71,104.29,3.05,32,9.06,60.27,24.49,81.94,50.26,26.46,31.45,34.44,68.54,31.86,108.64-.14,2.19-.63,5.47,.54,6.47,10.69,9.07,13.48,21.66,16.41,34.36,.61,2.63,2.42,5.62,4.59,7.16,12.83,9.06,23.15,20.26,31.27,34.22-10.94,6.26-21.47,12.29-31.94,18.28-4.95-5.3-9.43-10.64-14.48-15.38-7.33-6.88-15.65-11.99-26.22-12.22-14.33-.31-28.68-.47-43-1.19-44.63-2.25-88.65-8.27-131.35-22.04-53.92-17.39-99.4-46.6-131.24-94.57-10.92-16.45-21.34-33.23-31.77-50-9.14-14.7-22.34-20.14-39.11-18.1-2.69,.33-5.39,.63-8.07,1.05-24.47,3.8-39.95,20.14-41.58,44.32-.19,2.79,.75,6.17,2.32,8.49,7.67,11.26,17.95,19.8,29.87,26.19,11.42,6.13,23.1,11.77,34.71,17.53,13.08,6.48,25.5,13.91,35.81,24.45,16.85,17.23,23.06,38.67,25.82,61.97,2.6,21.88-3.48,39.32-21.68,52.17-1.9,1.34-3.53,3.08-6.34,5.57,16.37,0,31.08-.13,45.77,.07,4.77,.07,8.61-1.5,10.83-5.43,3.78-6.7,7.41-13.54,10.28-20.66,2.51-6.21,3.88-12.87,5.74-19.25,.9,.11,1.31,.06,1.62,.22,1.39,.69,2.78,1.38,4.11,2.18,29.42,17.65,61.58,24.46,95.55,24.29,24.03-.13,48.06,.16,72.09-.16,5.47-.07,8.9,1.15,11.39,6.29,3.21,6.63,9.05,11.36,16.24,11.88,11.84,.86,23.79,.23,36.92,.23-11.93-10.1-20.87-20.83-21.53-36.87,11.91,0,23.32-.05,34.72,.07,1.18,.01,2.57,.72,3.49,1.52,5.96,5.24,11.93,10.48,17.69,15.94,9.36,8.86,16.66,19.13,17.98,32.3,.79,7.84,.14,15.83,.14,24.32-1.06,.11-1.8,.26-2.54,.26Zm-223.69-160.4c32.87,14.12,67.39,21.78,102.75,25.33,25.03,2.51,50.24,3.26,75.37,4.77,2.08,.12,4.17,.02,6.47,.02-.36-5.86-4.99-6.52-8.56-7.62-4.3-1.32-5.47-3.57-5.36-7.94,.4-15.47,1.62-31.07,.25-46.42-4.37-48.83-31.41-79.75-77.66-94.45-25.91-8.24-52.24-13-79.52-8.74-18.18,2.84-34.97,9.31-48.36,22.14-6.45,6.18-12.39,13.59-16.25,21.55-3.76,7.75-7.93,11.37-16.45,9.96-2.4-.4-5.22-.21-7.44,.7-4.46,1.84-8.63,4.36-13.16,6.72,22.78,34.05,51.64,58.4,87.91,73.97Z"/><path class="cls-1" d="M84.85,68.8c-10.08,0-18.52,8.34-18.6,18.42-.09,10.31,8.54,18.9,18.85,18.76,10.06-.14,18.38-8.63,18.32-18.71-.06-10.04-8.53-18.47-18.56-18.47Z"/></g></g></svg>