<?xml version="1.0" encoding="UTF-8"?><svg id="Layer_2" xmlns="http://www.w3.org/2000/svg" viewBox="0 0 164.01 102.06"><defs><style>.cls-1{fill:#f8bb60;}</style></defs><g id="Landing_Page"><g><path class="cls-1" d="M10.74,101.9c0-2.59-.2-5.03,.04-7.43,.4-4.02,2.63-7.16,5.49-9.86,1.76-1.67,3.58-3.27,5.4-4.87,.28-.25,.7-.46,1.06-.46,3.48-.03,6.96-.02,10.6-.02-.2,4.9-2.93,8.17-6.58,11.26,4.01,0,7.66,.19,11.28-.07,2.2-.16,3.98-1.6,4.96-3.63,.76-1.57,1.81-1.94,3.48-1.92,7.34,.1,14.68,.01,22.01,.05,10.37,.05,20.19-2.03,29.18-7.42,.41-.24,.83-.45,1.25-.66,.1-.05,.22-.03,.5-.07,.57,1.95,.99,3.98,1.75,5.88,.88,2.17,1.99,4.26,3.14,6.31,.68,1.2,1.85,1.68,3.31,1.66,4.49-.06,8.98-.02,13.98-.02-.86-.76-1.35-1.29-1.94-1.7-5.56-3.92-7.41-9.25-6.62-15.93,.84-7.12,2.74-13.66,7.89-18.93,3.15-3.22,6.94-5.49,10.93-7.47,3.55-1.76,7.11-3.48,10.6-5.35,3.64-1.95,6.78-4.56,9.12-8,.48-.71,.77-1.74,.71-2.59-.5-7.38-5.22-12.37-12.7-13.53-.82-.13-1.64-.22-2.46-.32-5.12-.62-9.15,1.04-11.94,5.53-3.18,5.12-6.37,10.25-9.7,15.27-9.72,14.65-23.61,23.57-40.08,28.88-13.04,4.21-26.48,6.04-40.11,6.73-4.37,.22-8.75,.27-13.13,.36-3.23,.07-5.77,1.63-8.01,3.73-1.54,1.45-2.91,3.08-4.42,4.7-3.2-1.83-6.41-3.67-9.75-5.58,2.48-4.26,5.63-7.68,9.55-10.45,.66-.47,1.22-1.38,1.4-2.19,.89-3.88,1.75-7.72,5.01-10.49,.36-.3,.21-1.31,.17-1.98-.79-12.24,1.65-23.57,9.73-33.18,6.62-7.87,15.25-12.58,25.02-15.35,10.53-2.98,21.15-3.99,31.85-.93,8.53,2.44,15.51,7.16,20.51,14.61,.3,.45,.78,.88,1.27,1.08,2.66,1.08,5.35,2.09,8.24,3.2,.67-1.02,1.5-2.37,2.41-3.66,4.27-6.09,9.62-10.82,17.31-11.49,17.52-1.54,31.97,8.45,31.53,29.01-.01,.6-.36,1.23-.67,1.78-4.03,7.3-10.09,12.44-17.41,16.18-3.68,1.88-7.4,3.69-11.13,5.48-7.98,3.83-10.7,10.57-10.48,18.91,.02,.64,.56,1.39,1.07,1.88,1.37,1.3,2.93,2.41,4.27,3.74,4.01,3.98,6.1,8.78,5.98,14.49-.03,1.58,0,3.17,0,4.92h-2.07c-8.17,0-16.34-.21-24.5,.06-7.7,.26-12.75-3.37-16.23-9.72-3.71,.97-7.36,2.2-11.12,2.83-4,.68-8.1,.98-12.16,1.1-5.97,.18-11.95,.07-17.93,.02-1.25,0-2.19,.26-3.13,1.19-2.98,2.97-6.69,4.45-10.88,4.48-8.7,.07-17.4,.03-26.1,.03-.23,0-.45-.05-.78-.08ZM106.68,30.41c-1.38-.72-2.66-1.49-4.02-2.05-.68-.28-1.54-.34-2.27-.22-2.6,.43-3.88-.67-5.02-3.04-1.18-2.43-2.99-4.7-4.96-6.58-4.09-3.92-9.22-5.89-14.77-6.76-8.33-1.3-16.37,.16-24.28,2.67-14.12,4.49-22.38,13.93-23.71,28.84-.42,4.69-.05,9.45,.08,14.17,.03,1.33-.32,2.02-1.64,2.42-1.09,.33-2.5,.54-2.61,2.33,.7,0,1.34,.03,1.98,0,7.67-.46,15.37-.69,23.01-1.46,10.8-1.08,21.34-3.42,31.38-7.73,11.08-4.76,19.89-12.19,26.85-22.59Z"/><path class="cls-1" d="M138.11,21.01c3.08,0,5.65,2.55,5.68,5.63,.03,3.15-2.61,5.77-5.76,5.73-3.07-.04-5.61-2.64-5.59-5.71,.02-3.07,2.6-5.64,5.67-5.64Z"/></g></g></svg>